<?xml version="1.0" standalone="no"?>
<!DOCTYPE svg PUBLIC "-//W3C//DTD SVG 20010904//EN"
 "http://www.w3.org/TR/2001/REC-SVG-20010904/DTD/svg10.dtd">
<svg version="1.0" xmlns="http://www.w3.org/2000/svg"
 width="512.000000pt" height="512.000000pt" viewBox="0 0 512.000000 512.000000"
 preserveAspectRatio="xMidYMid meet">
<metadata>
Created by potrace 1.11, written by Peter Selinger 2001-2013
</metadata>
<g transform="translate(0.000000,512.000000) scale(0.100000,-0.100000)"
fill="#000000" stroke="none">
<path d="M2448 4295 c-2 -1 -37 -5 -79 -8 -262 -20 -563 -128 -799 -287 -117
-78 -138 -97 -275 -235 -150 -151 -264 -320 -350 -520 -36 -85 -95 -264 -95
-290 0 -15 -5 -13 330 -129 345 -119 320 -112 320 -89 0 10 12 59 26 108 111
391 433 682 833 755 99 18 271 16 371 -3 149 -30 306 -97 417 -179 64 -46 173
-147 173 -159 0 -4 -52 -51 -116 -104 -63 -53 -119 -108 -125 -122 -19 -51 -4
-120 34 -151 8 -7 113 -46 233 -88 120 -41 221 -78 224 -82 3 -4 14 -8 25 -8
19 -2 77 -21 500 -169 220 -77 255 -80 309 -26 28 28 31 38 31 89 0 52 -11
155 -20 192 -2 8 -7 40 -10 70 -3 30 -8 62 -10 70 -2 8 -6 33 -9 55 -8 61 -56
407 -61 435 -2 14 -16 105 -30 203 -14 99 -32 192 -41 209 -21 40 -84 68 -130
58 -42 -10 -53 -17 -173 -117 l-95 -79 -93 93 c-191 191 -423 335 -672 418
-58 19 -116 37 -128 40 -13 3 -33 7 -45 10 -33 7 -126 23 -178 31 -45 6 -287
14 -292 9z"/>
<path d="M738 2613 c-15 -10 -35 -32 -44 -49 -18 -34 -16 -68 21 -324 2 -14
13 -92 25 -175 19 -138 24 -174 36 -245 2 -14 17 -124 34 -245 17 -121 33
-233 36 -249 13 -76 72 -123 143 -113 34 4 63 22 144 88 56 46 104 87 108 91
3 4 25 -13 50 -38 90 -95 217 -193 389 -304 14 -8 71 -37 128 -63 805 -375
1762 -81 2220 684 67 112 112 209 155 339 31 92 50 170 43 170 -4 0 -343 116
-495 169 -80 28 -145 50 -147 48 -1 -1 -14 -47 -28 -102 -91 -340 -335 -609
-656 -725 -313 -112 -660 -73 -929 105 -82 54 -170 126 -183 149 -5 8 35 47
113 112 67 54 127 111 135 126 30 58 7 140 -47 169 -11 6 -118 44 -237 85
-1008 349 -955 333 -1014 297z"/>
</g>
</svg>
