<?xml version="1.0" encoding="UTF-8" standalone="no"?>
<!-- Created with Inkscape (http://www.inkscape.org/) -->

<svg
   xmlns:dc="http://purl.org/dc/elements/1.1/"
   xmlns:cc="http://creativecommons.org/ns#"
   xmlns:rdf="http://www.w3.org/1999/02/22-rdf-syntax-ns#"
   xmlns:svg="http://www.w3.org/2000/svg"
   xmlns="http://www.w3.org/2000/svg"
   xmlns:xlink="http://www.w3.org/1999/xlink"
   xmlns:sodipodi="http://sodipodi.sourceforge.net/DTD/sodipodi-0.dtd"
   xmlns:inkscape="http://www.inkscape.org/namespaces/inkscape"
   width="2000.0001"
   height="500.00003"
   viewBox="0 0 529.16668 132.29168"
   version="1.1"
   id="svg4702"
   inkscape:version="0.92.4 (5da689c313, 2019-01-14)"
   sodipodi:docname="python.svg">
  <defs
     id="defs4696">
    <linearGradient
       gradientTransform="matrix(0.353878,0,0,0.353878,-20.205343,-20.508134)"
       gradientUnits="userSpaceOnUse"
       xlink:href="#lg2"
       id="lg5"
       y2="64.053001"
       x2="94.693001"
       y1="112.511"
       x1="94.693001" />
    <linearGradient
       id="lg2">
      <stop
         id="stop875"
         offset="0"
         stop-color="#fff" />
      <stop
         id="stop877"
         offset="1"
         stop-opacity="0.165"
         stop-color="#fff" />
    </linearGradient>
    <linearGradient
       gradientTransform="matrix(0.353878,0,0,0.353878,-20.205343,-20.508134)"
       gradientUnits="userSpaceOnUse"
       xlink:href="#lg1"
       id="lg6"
       y2="102"
       x2="142.62"
       y1="102"
       x1="59.728001" />
    <linearGradient
       id="lg1">
      <stop
         id="stop870"
         offset="0"
         stop-color="#3778ae" />
      <stop
         id="stop872"
         offset="1"
         stop-color="#366c99" />
    </linearGradient>
    <linearGradient
       gradientTransform="matrix(0.353878,0,0,0.353878,-9.1228126,-9.0415038)"
       gradientUnits="userSpaceOnUse"
       xlink:href="#lg2"
       id="lg7"
       y2="64.053001"
       x2="94.693001"
       y1="112.511"
       x1="94.693001" />
    <linearGradient
       gradientTransform="matrix(0.353878,0,0,0.353878,-19.215543,-19.093134)"
       gradientUnits="userSpaceOnUse"
       xlink:href="#lg3"
       id="lg8"
       y2="169.27901"
       x2="116.965"
       y1="89.129997"
       x1="119.191" />
    <linearGradient
       id="lg3">
      <stop
         id="stop880"
         offset="0"
         stop-color="#ffe253" />
      <stop
         id="stop882"
         offset="1"
         stop-color="#ffca1c" />
    </linearGradient>
    <radialGradient
       gradientTransform="matrix(1.6,0,0,0.551754,-3.0098176,3.7396162)"
       gradientUnits="userSpaceOnUse"
       xlink:href="#lg4"
       id="rg1"
       fy="63.965"
       fx="15.115"
       r="12.289"
       cy="63.965"
       cx="15.115" />
    <linearGradient
       id="lg4">
      <stop
         id="stop885"
         offset="0"
         stop-color="#000" />
      <stop
         id="stop887"
         offset="1"
         stop-opacity="0"
         stop-color="#000" />
    </linearGradient>
    <linearGradient
       inkscape:collect="always"
       xlink:href="#lg3"
       id="linearGradient6030"
       gradientUnits="userSpaceOnUse"
       gradientTransform="matrix(0.37914365,0,0,0.37914365,156.16498,188.47929)"
       x1="119.191"
       y1="89.129997"
       x2="116.965"
       y2="169.27901" />
    <linearGradient
       inkscape:collect="always"
       xlink:href="#lg2"
       id="linearGradient6032"
       gradientUnits="userSpaceOnUse"
       gradientTransform="matrix(0.37914365,0,0,0.37914365,166.97832,199.24856)"
       x1="94.693001"
       y1="112.511"
       x2="94.693001"
       y2="64.053001" />
    <linearGradient
       inkscape:collect="always"
       xlink:href="#lg1"
       id="linearGradient6034"
       gradientUnits="userSpaceOnUse"
       gradientTransform="matrix(0.37914365,0,0,0.37914365,155.10454,186.96325)"
       x1="59.728001"
       y1="102"
       x2="142.62"
       y2="102" />
    <linearGradient
       inkscape:collect="always"
       xlink:href="#lg2"
       id="linearGradient6036"
       gradientUnits="userSpaceOnUse"
       gradientTransform="matrix(0.37914365,0,0,0.37914365,155.10454,186.96325)"
       x1="94.693001"
       y1="112.511"
       x2="94.693001"
       y2="64.053001" />
  </defs>
  <sodipodi:namedview
     id="base"
     pagecolor="#ffffff"
     bordercolor="#666666"
     borderopacity="1.0"
     inkscape:pageopacity="0.0"
     inkscape:pageshadow="2"
     inkscape:zoom="0.49497475"
     inkscape:cx="201.36814"
     inkscape:cy="656.95888"
     inkscape:document-units="mm"
     inkscape:current-layer="layer1"
     showgrid="false"
     units="px"
     inkscape:window-width="2560"
     inkscape:window-height="1377"
     inkscape:window-x="-8"
     inkscape:window-y="-8"
     inkscape:window-maximized="1"
     fit-margin-top="0"
     fit-margin-left="0"
     fit-margin-right="0"
     fit-margin-bottom="0" />
  <metadata
     id="metadata4699">
    <rdf:RDF>
      <cc:Work
         rdf:about="">
        <dc:format>image/svg+xml</dc:format>
        <dc:type
           rdf:resource="http://purl.org/dc/dcmitype/StillImage" />
        <dc:title></dc:title>
      </cc:Work>
    </rdf:RDF>
  </metadata>
  <g
     inkscape:label="Layer 1"
     inkscape:groupmode="layer"
     id="layer1"
     transform="translate(-0.37797621,-164.33034)">
    <rect
       style="fill:#565d64;fill-opacity:1;stroke:none;stroke-width:30;stroke-miterlimit:4;stroke-dasharray:none;stroke-opacity:1"
       id="rect5247"
       width="529.16669"
       height="132.29167"
       x="0.37797621"
       y="164.33034" />
    <path
       inkscape:connector-curvature="0"
       style="fill:url(#linearGradient6030);stroke-width:1.07139647"
       id="path899"
       d="m 210.2385,248.02375 c 0,2.92695 -2.54029,4.40944 -5.11848,5.14881 -3.87865,1.11466 -6.9914,0.944 -10.23302,0 -2.70721,-0.78876 -5.11847,-2.40013 -5.11847,-5.14881 v -9.65671 c 0,-2.77919 2.31643,-5.15258 5.11847,-5.15258 l 10.06941,-0.65471 c 3.40852,0 5.63622,-2.12757 5.63622,-5.61948 l 0.92727,-4.66798 h 3.837 c 2.97998,0 4.38297,2.21428 5.11851,5.14873 1.02371,4.0759 1.06901,7.12423 0,10.30144 -1.03511,3.08619 -2.14282,5.14875 -5.11851,5.14875 h -5.1184 -10.23313 v -0.0204 c 8.83092,0.0204 10.23313,-3.55317 10.23313,5.17283 z" />
    <path
       inkscape:connector-curvature="0"
       style="fill:#ffffff;stroke-width:1.07139647"
       id="path901"
       d="m 203.84227,248.66455 c 0,-1.06539 0.86066,-1.92993 1.91844,-1.92993 1.07142,0 1.91847,0.86454 1.91847,1.92993 0,1.06916 -0.8568,1.93354 -1.91847,1.93354 -1.05778,0 -1.91844,-0.86438 -1.91844,-1.93354 z" />
    <path
       inkscape:connector-curvature="0"
       style="opacity:0.83699999;fill:url(#linearGradient6032);stroke-width:1.07139647"
       id="path903"
       d="m 211.50894,222.27176 v 4.52825 c -3.65464,6.42506 -10.59735,6.43761 -16.42149,6.43761 l -2.16099,0.21989 c -3.03655,2.61035 -3.13321,6.79943 -3.13093,10.47354 6.69645,-7.47211 13.83966,-8.03589 17.40332,-8.01984 7.11163,0.0324 10.4609,-1.71733 13.85734,-5.56472 -0.0163,-0.0749 0.0163,-0.14126 0,-0.21826 -0.13088,-0.85713 -0.36039,-1.77253 -0.6001,-2.72777 -0.34461,-1.37557 -0.79582,-2.58646 -1.52747,-3.49158 -0.0163,-0.0163 -0.0405,-0.0364 -0.0547,-0.0535 0,0 -0.045,0 -0.0536,0 -0.0242,-0.0283 -0.0283,-0.0806 -0.0536,-0.10849 -0.0503,-0.0364 -0.0558,-0.0749 -0.10809,-0.10808 -0.0163,-0.0163 -0.0417,0.0163 -0.0535,0 -0.77581,-0.50281 -1.71811,-0.87798 -2.67334,-1.03667 -0.8658,-0.14289 -1.7348,-0.25228 -2.61874,-0.3272 h -0.54557 -1.25471 z" />
    <path
       inkscape:connector-curvature="0"
       style="fill:none;stroke:#bb9400;stroke-width:1.74637628"
       id="path905"
       d="m 210.75129,248.02322 c 0,2.92706 -3.05316,4.40985 -5.63127,5.14914 -3.87845,1.11424 -6.99084,0.94387 -10.23289,0 -2.70744,-0.78856 -5.14381,-2.39993 -5.14808,-5.14809 l -0.0163,-9.91896 c -0.0122,-3.2924 2.46634,-5.36771 5.19522,-5.35702 l 9.07121,0.0163 c 3.482,0 6.8676,-3.53558 6.85797,-7.01764 v -3.46809 h 4.51059 c 2.97998,0 4.38199,2.21456 5.11804,5.14911 1.02426,4.0756 1.07144,7.12373 0,10.30147 -1.03493,3.08564 -2.14276,5.51513 -5.11804,5.51557 h -4.607 -10.7461 v -0.0204 l 10.7461,0.0364 z" />
    <path
       inkscape:connector-curvature="0"
       style="opacity:0.38399999;fill:#ffffff;stroke-width:1.07139647"
       id="path907"
       d="m 211.72227,223.14472 v 2.56419 c 0,3.99042 -3.7461,7.90231 -8.01501,7.90231 h -8.83803 c -3.05412,0 -4.30529,2.3109 -4.2901,4.75474 l 0.0598,9.6564 c 0.0122,1.11917 0.42856,1.95367 1.22996,2.67325 0.80142,0.71945 2.00631,1.26745 3.27345,1.63675 3.12462,0.90985 5.9741,1.07378 9.71091,0 1.21359,-0.34783 2.82784,-1.0072 3.64018,-1.71038 0.81223,-0.70337 1.40108,-1.38861 1.40108,-2.59962 v -3.88897 h -10.76967 v -1.79942 l 16.25768,0.0536 c 1.28652,0 1.91566,-0.50613 2.55462,-1.24635 0.63899,-0.74031 1.19453,-2.19302 1.70073,-3.70275 1.01313,-3.01019 1.00028,-5.83814 0,-9.82017 -0.34824,-1.39047 -0.85453,-2.51361 -1.52745,-3.27335 -0.67285,-0.75976 -1.4539,-1.2002 -2.7279,-1.2002 z m 1.74578,1.74578 h 1.91426 c 0.55731,0 1.28489,0.44931 1.41849,0.6002 0.38834,0.43851 0.8357,1.327 1.14578,2.56406 0.95302,3.79445 0.95515,6.16212 0.0536,8.83803 -0.48394,1.4432 -0.98624,2.80086 -1.36381,3.2142 -0.34095,0.36362 -1.07138,0.54565 -1.25489,0.54565 l -5.12825,-0.0547 h -12.8753 v 5.29098 h 10.76967 v 2.14277 c 0,0.77894 -1.0428,1.26307 -1.22227,1.41846 -0.52195,0.45198 -1.44719,0.89556 -2.50951,1.20015 -3.45311,0.99253 -5.89269,0.84203 -8.78375,0 -1.09401,-0.31868 -2.04216,-0.78627 -2.57871,-1.24227 -0.53658,-0.45598 -0.56959,-0.82938 -0.66835,-1.37675 l -0.0598,-9.65638 c -0.0122,-2.16681 0.6918,-3.00893 2.54435,-3.00893 h 8.83807 c 5.2748,0 9.76074,-4.66077 9.76074,-9.64814 1.2e-4,-0.27577 -1.3e-4,-0.55165 -1.3e-4,-0.82741 z" />
    <path
       inkscape:connector-curvature="0"
       style="fill:url(#linearGradient6034);stroke-width:1.07139647"
       id="path909"
       d="m 188.70804,215.6037 c 0,-2.92692 0.78473,-4.51934 5.11827,-5.27767 2.94229,-0.51569 6.7148,-0.58007 10.23326,0 2.77909,0.45876 5.11849,2.52891 5.11849,5.27767 v 9.65693 c 0,2.83215 -2.27117,5.15248 -5.11849,5.15248 l -9.28057,0.51296 c -3.47281,0 -7.05942,3.03433 -7.05942,6.38231 l -0.29318,4.04666 h -3.51845 c -2.97625,0 -4.7089,-2.14589 -5.43682,-5.14869 -0.98204,-4.03392 -0.94025,-6.43781 0,-10.30116 0.81515,-3.3707 3.4199,-5.14892 6.10698,-5.14892 h 3.84071 c 0,0 9.58346,-0.0364 0,-0.0323 v -5.11818 0 z" />
    <path
       inkscape:connector-curvature="0"
       style="fill:#ffffff;stroke-width:1.07139647"
       id="path911"
       d="m 191.2672,214.96293 c 0,-1.07143 0.85709,-1.93365 1.91843,-1.93365 1.05778,0 1.91855,0.86437 1.91855,1.93365 0,1.06539 -0.86077,1.92981 -1.91855,1.92981 -1.06155,0 -1.91843,-0.86442 -1.91843,-1.92981 z" />
    <path
       inkscape:connector-curvature="0"
       style="opacity:0.37700004;fill:url(#linearGradient6036);stroke-width:1.07139647"
       id="path913"
       d="m 198.06412,209.89918 c -1.51433,0.0364 -2.9682,0.21098 -4.25537,0.43638 -4.33357,0.7583 -5.07359,2.36497 -5.07359,5.29195 l -0.31625,5.12876 -3.55733,-3e-4 c -2.97626,0 -5.56786,1.7577 -6.38296,5.12811 -0.55338,2.27406 -0.80401,4.05439 -0.70936,5.94667 6.74164,-7.64109 13.97548,-8.1995 17.56715,-8.1833 7.11147,0.0324 10.46079,-1.71733 13.85719,-5.56472 v -2.45501 c 0,-2.74868 -2.34912,-4.83306 -5.1282,-5.29184 -1.9791,-0.32638 -4.05428,-0.48384 -6.00127,-0.4367 z" />
    <path
       inkscape:connector-curvature="0"
       style="fill:none;stroke:#274e70;stroke-width:1.74637628"
       id="path915"
       d="m 193.75573,210.57588 c 3.87853,-1.11467 6.99136,-0.94402 10.23289,0 2.70722,0.78865 5.11991,2.39991 5.11848,5.14883 v 10.42627 c 0,1.46373 -2.11554,4.85268 -5.11333,4.85268 h -9.53414 c -2.67667,0 -6.42518,2.91601 -6.42518,6.40802 v 4.06456 h -4.51054 c -2.9801,0 -4.38301,-2.21427 -5.11854,-5.14895 -1.02368,-4.07568 -1.07138,-7.12401 0,-10.30124 1.03511,-3.08627 2.14282,-5.51524 5.11854,-5.51524 h 4.60537 10.74611 v 0.0204 l -10.74611,-0.0364 0.0204,-5.22123 c -0.0283,-2.13905 2.58698,-3.80605 5.60588,-4.69756 z" />
    <path
       inkscape:connector-curvature="0"
       style="opacity:0.16499999;fill:#ffffff;stroke-width:1.07139647"
       id="path917"
       d="m 187.15343,240.60361 v -2.99566 c 0,-3.99054 3.63772,-7.53054 7.54917,-7.53054 h 9.30391 c 2.30877,0 4.3113,-2.40107 4.29007,-4.69495 l -0.0896,-9.65652 c -0.0122,-1.11904 -0.39888,-1.95364 -1.20027,-2.67321 -0.80135,-0.71954 -2.00631,-1.26758 -3.27337,-1.63668 -3.12482,-0.91003 -5.97431,-1.07386 -9.71104,0 -1.21342,0.34783 -2.82804,1.00712 -3.64014,1.71041 -0.81233,0.70326 -1.40095,1.38852 -1.40095,2.59948 v 3.88898 h 10.76955 v 1.80036 l -16.25771,-0.0547 c -1.28568,0 -1.91564,0.50615 -2.55464,1.24649 -0.639,0.74009 -1.19448,2.19281 -1.70072,3.70263 -1.01313,3.01017 -1.00016,5.83802 0,9.8201 0.34864,1.39046 0.85452,2.5136 1.52761,3.27334 0.67281,0.75982 1.4539,1.20028 2.72775,1.20028 h 3.6601 z m -1.74581,-1.74586 h -1.91428 c -0.55713,0 -1.28569,-0.44936 -1.41841,-0.6 -0.38834,-0.43863 -0.83581,-1.32726 -1.14586,-2.56426 -0.95302,-3.79439 -0.95505,-6.16194 -0.0544,-8.83807 0.48394,-1.44297 0.98623,-2.80073 1.36387,-3.20339 0.34095,-0.36362 1.06167,-0.54553 1.25481,-0.54553 l 18.00356,0.0547 v -5.29205 h -10.76955 v -2.14281 c 0,-0.7789 1.04272,-1.26303 1.22214,-1.41842 0.52215,-0.45202 1.44738,-0.89556 2.50964,-1.19995 3.45303,-0.99232 5.89269,-0.84191 8.78367,0 1.09409,0.31868 2.04218,0.78631 2.56406,1.25482 0.18584,0.14492 0.28345,0.31869 0.43692,0.49091 0.21301,0.25389 0.1665,0.58951 0.21543,0.87288 v 9.65651 c 0,1.32389 -1.13191,2.94919 -2.45489,2.94919 h -9.30387 c -4.91741,0 -9.29502,4.2887 -9.29502,9.27626 0,0.41519 0,1.24927 0,1.24927 z" />
    <g
       aria-label="python"
       style="font-style:normal;font-variant:normal;font-weight:normal;font-stretch:normal;font-size:47.8981781px;line-height:1.25;font-family:Flux;-inkscape-font-specification:Flux;letter-spacing:0px;word-spacing:0px;fill:#ffffff;fill-opacity:1;stroke:none;stroke-width:0.49893937"
       id="text848">
      <path
         d="m 238.62828,221.96779 c 5.69988,-0.0958 8.28638,5.2688 8.33428,11.35187 0,5.3646 -2.6823,10.39391 -8.43008,10.5855 -2.34701,0 -4.35873,-0.71847 -6.32256,-1.91593 v 12.40563 l -3.44867,-1.24535 0.0479,-27.54145 c -0.0479,0 2.6823,-3.59237 9.77123,-3.68816 z m -0.86217,19.44666 c 4.59823,-0.28738 5.173,-4.78981 5.173,-8.33428 0,-3.44867 -0.57477,-8.62167 -4.93351,-8.81326 -2.96969,-0.1916 -5.36459,1.19745 -5.84358,1.67643 v 13.65098 c 1.14956,0.71848 3.44867,1.96383 5.60409,1.82013 z"
         style="font-size:47.8981781px;fill:#ffffff;fill-opacity:1;stroke-width:0.49893937"
         id="path854" />
      <path
         d="M 256.25481,236.62464 V 221.9199 l -3.54447,1.19745 v 14.56105 c 0,3.87975 3.59237,6.13096 6.75364,6.13096 4.11925,0 6.46626,-1.14955 7.52002,-1.62853 0.0479,0.52688 0,0.38318 0,0.91006 0,1.53274 -0.0479,4.16714 -0.76637,5.50829 -1.43695,2.7302 -5.2688,3.11338 -7.9511,3.49657 l 0.57478,2.20331 c 3.54446,-0.0958 8.52587,-1.43694 10.29811,-4.78981 1.00586,-1.91593 1.14955,-5.60409 1.14955,-8.0469 v -19.01557 h -3.49656 v 17.09965 c -1.14956,0.76637 -3.25708,1.82013 -5.12511,1.86802 -3.11338,0.0479 -5.41249,-1.62853 -5.41249,-4.83771 z"
         style="font-size:47.8981781px;fill:#ffffff;fill-opacity:1;stroke-width:0.49893937"
         id="path856" />
      <path
         d="m 276.67739,224.69799 v 13.74678 c 0,3.59236 2.7781,5.69988 7.42422,5.2688 v -1.82013 c -2.44281,-0.0958 -3.92765,-0.76637 -3.92765,-3.54447 v -13.65098 h 3.92765 v -2.25121 h -3.92765 v -7.08893 l -3.49657,1.24535 v 5.84358 h -2.39491 v 2.25121 z"
         style="font-size:47.8981781px;fill:#ffffff;fill-opacity:1;stroke-width:0.49893937"
         id="path858" />
      <path
         d="m 306.34283,243.42618 v -14.60895 c 0,-3.64026 -2.49071,-6.51415 -6.22676,-6.51415 -2.826,0 -5.22091,0.91007 -7.32843,2.44281 v -14.70474 l -3.49656,1.10166 v 32.28337 h 3.49656 v -16.18959 c 1.77224,-1.24535 3.78396,-2.5386 5.98728,-2.5386 2.82599,0 4.02344,2.77809 4.02344,5.2209 v 13.50729 z"
         style="font-size:47.8981781px;fill:#ffffff;fill-opacity:1;stroke-width:0.49893937"
         id="path860" />
      <path
         d="m 310.59155,232.55329 c 0,5.79568 3.06548,11.25607 9.53173,11.30397 6.51416,-0.0479 9.67544,-5.50829 9.67544,-11.30397 -0.0479,-5.65198 -3.59237,-10.5855 -9.62754,-10.63339 -5.98727,0.0479 -9.57963,4.98141 -9.57963,10.63339 z m 3.78395,0 c 0,-3.78395 0.95797,-7.9511 5.74778,-8.23849 4.50243,0.2395 5.84358,4.45454 5.84358,8.23849 0,4.02345 -0.86216,9.00486 -5.74778,9.14855 -4.50243,-0.0479 -5.79568,-5.1251 -5.79568,-9.14855 z"
         style="font-size:47.8981781px;fill:#ffffff;fill-opacity:1;stroke-width:0.49893937"
         id="path862" />
      <path
         d="m 351.51007,243.42618 v -16.04589 c 0,-2.82599 -2.25122,-4.64612 -4.78982,-5.2209 -2.49071,-0.57478 -4.83772,-0.0958 -6.56205,0.38318 -2.20332,0.57478 -3.78396,1.58064 -5.55619,2.87389 v 18.00972 h 3.49657 v -17.57863 c 1.10166,-0.76637 2.87389,-1.58064 4.74192,-1.62854 3.06548,-0.0479 5.173,1.72433 5.173,4.93351 v 14.27366 z"
         style="font-size:47.8981781px;fill:#ffffff;fill-opacity:1;stroke-width:0.49893937"
         id="path864" />
    </g>
  </g>
</svg>
