<?xml version="1.0" encoding="UTF-8" standalone="no"?>
<!-- Created with Inkscape (http://www.inkscape.org/) -->

<svg
   xmlns:dc="http://purl.org/dc/elements/1.1/"
   xmlns:cc="http://creativecommons.org/ns#"
   xmlns:rdf="http://www.w3.org/1999/02/22-rdf-syntax-ns#"
   xmlns:svg="http://www.w3.org/2000/svg"
   xmlns="http://www.w3.org/2000/svg"
   xmlns:xlink="http://www.w3.org/1999/xlink"
   xmlns:sodipodi="http://sodipodi.sourceforge.net/DTD/sodipodi-0.dtd"
   xmlns:inkscape="http://www.inkscape.org/namespaces/inkscape"
   width="2000.0001"
   height="500.00003"
   viewBox="0 0 529.16668 132.29168"
   version="1.1"
   id="svg4702"
   inkscape:version="0.92.4 (5da689c313, 2019-01-14)"
   sodipodi:docname="python.svg">
  <defs
     id="defs4696">
    <linearGradient
       gradientTransform="matrix(0.353878,0,0,0.353878,-20.205343,-20.508134)"
       gradientUnits="userSpaceOnUse"
       xlink:href="#lg2"
       id="lg5"
       y2="64.053001"
       x2="94.693001"
       y1="112.511"
       x1="94.693001" />
    <linearGradient
       id="lg2">
      <stop
         id="stop875"
         offset="0"
         stop-color="#fff" />
      <stop
         id="stop877"
         offset="1"
         stop-opacity="0.165"
         stop-color="#fff" />
    </linearGradient>
    <linearGradient
       gradientTransform="matrix(0.353878,0,0,0.353878,-20.205343,-20.508134)"
       gradientUnits="userSpaceOnUse"
       xlink:href="#lg1"
       id="lg6"
       y2="102"
       x2="142.62"
       y1="102"
       x1="59.728001" />
    <linearGradient
       id="lg1">
      <stop
         id="stop870"
         offset="0"
         stop-color="#3778ae" />
      <stop
         id="stop872"
         offset="1"
         stop-color="#366c99" />
    </linearGradient>
    <linearGradient
       gradientTransform="matrix(0.353878,0,0,0.353878,-9.1228126,-9.0415038)"
       gradientUnits="userSpaceOnUse"
       xlink:href="#lg2"
       id="lg7"
       y2="64.053001"
       x2="94.693001"
       y1="112.511"
       x1="94.693001" />
    <linearGradient
       gradientTransform="matrix(0.353878,0,0,0.353878,-19.215543,-19.093134)"
       gradientUnits="userSpaceOnUse"
       xlink:href="#lg3"
       id="lg8"
       y2="169.27901"
       x2="116.965"
       y1="89.129997"
       x1="119.191" />
    <linearGradient
       id="lg3">
      <stop
         id="stop880"
         offset="0"
         stop-color="#ffe253" />
      <stop
         id="stop882"
         offset="1"
         stop-color="#ffca1c" />
    </linearGradient>
    <radialGradient
       gradientTransform="matrix(1.6,0,0,0.551754,-3.0098176,3.7396162)"
       gradientUnits="userSpaceOnUse"
       xlink:href="#lg4"
       id="rg1"
       fy="63.965"
       fx="15.115"
       r="12.289"
       cy="63.965"
       cx="15.115" />
    <linearGradient
       id="lg4">
      <stop
         id="stop885"
         offset="0"
         stop-color="#000" />
      <stop
         id="stop887"
         offset="1"
         stop-opacity="0"
         stop-color="#000" />
    </linearGradient>
    <linearGradient
       inkscape:collect="always"
       xlink:href="#lg3"
       id="linearGradient6030"
       gradientUnits="userSpaceOnUse"
       gradientTransform="matrix(0.34712647,0,0,0.34712647,165.904,191.89046)"
       x1="119.191"
       y1="89.129997"
       x2="116.965"
       y2="169.27901" />
    <linearGradient
       inkscape:collect="always"
       xlink:href="#lg2"
       id="linearGradient6032"
       gradientUnits="userSpaceOnUse"
       gradientTransform="matrix(0.34712647,0,0,0.34712647,175.8042,201.75031)"
       x1="94.693001"
       y1="112.511"
       x2="94.693001"
       y2="64.053001" />
    <linearGradient
       inkscape:collect="always"
       xlink:href="#lg1"
       id="linearGradient6034"
       gradientUnits="userSpaceOnUse"
       gradientTransform="matrix(0.34712647,0,0,0.34712647,164.93311,190.50244)"
       x1="59.728001"
       y1="102"
       x2="142.62"
       y2="102" />
    <linearGradient
       inkscape:collect="always"
       xlink:href="#lg2"
       id="linearGradient6036"
       gradientUnits="userSpaceOnUse"
       gradientTransform="matrix(0.34712647,0,0,0.34712647,164.93311,190.50244)"
       x1="94.693001"
       y1="112.511"
       x2="94.693001"
       y2="64.053001" />
  </defs>
  <sodipodi:namedview
     id="base"
     pagecolor="#ffffff"
     bordercolor="#666666"
     borderopacity="1.0"
     inkscape:pageopacity="0.0"
     inkscape:pageshadow="2"
     inkscape:zoom="0.7"
     inkscape:cx="687.75748"
     inkscape:cy="171.25622"
     inkscape:document-units="mm"
     inkscape:current-layer="layer1"
     showgrid="false"
     units="px"
     inkscape:window-width="2560"
     inkscape:window-height="1377"
     inkscape:window-x="-8"
     inkscape:window-y="-8"
     inkscape:window-maximized="1"
     fit-margin-top="0"
     fit-margin-left="0"
     fit-margin-right="0"
     fit-margin-bottom="0" />
  <metadata
     id="metadata4699">
    <rdf:RDF>
      <cc:Work
         rdf:about="">
        <dc:format>image/svg+xml</dc:format>
        <dc:type
           rdf:resource="http://purl.org/dc/dcmitype/StillImage" />
        <dc:title />
      </cc:Work>
    </rdf:RDF>
  </metadata>
  <g
     inkscape:label="Layer 1"
     inkscape:groupmode="layer"
     id="layer1"
     transform="translate(-0.37797621,-164.33034)">
    <rect
       style="fill:#565d64;fill-opacity:1;stroke:none;stroke-width:30;stroke-miterlimit:4;stroke-dasharray:none;stroke-opacity:1"
       id="rect5247"
       width="529.16669"
       height="132.29167"
       x="0.37797621"
       y="164.33034" />
    <path
       inkscape:connector-curvature="0"
       style="fill:url(#linearGradient6030);stroke-width:0.98092127"
       id="path899"
       d="m 215.41123,246.40663 c 0,2.67978 -2.32577,4.03708 -4.68625,4.71401 -3.55111,1.02053 -6.401,0.86428 -9.36888,0 -2.47859,-0.72215 -4.68623,-2.19745 -4.68623,-4.71401 v -8.84124 c 0,-2.5445 2.12081,-4.71747 4.68623,-4.71747 l 9.21909,-0.59942 c 3.12068,0 5.16026,-1.94791 5.16026,-5.14494 l 0.84897,-4.27379 h 3.51298 c 2.72833,0 4.01285,2.0273 4.68627,4.71394 0.93726,3.73171 0.97874,6.52262 0,9.43153 -0.9477,2.82557 -1.96186,4.71396 -4.68627,4.71396 h -4.68617 -9.36898 v -0.0187 c 8.08518,0.0187 9.36898,-3.25312 9.36898,4.736 z" />
    <path
       inkscape:connector-curvature="0"
       style="fill:#ffffff;stroke-width:0.98092127"
       id="path901"
       d="m 209.55514,246.99331 c 0,-0.97542 0.78798,-1.76695 1.75643,-1.76695 0.98094,0 1.75646,0.79153 1.75646,1.76695 0,0.97888 -0.78444,1.77026 -1.75646,1.77026 -0.96845,0 -1.75643,-0.79138 -1.75643,-1.77026 z" />
    <path
       inkscape:connector-curvature="0"
       style="opacity:0.83699999;fill:url(#linearGradient6032);stroke-width:0.98092127"
       id="path903"
       d="m 216.57439,222.82929 v 4.14586 c -3.34602,5.88249 -9.70245,5.89398 -15.03476,5.89398 l -1.97851,0.20132 c -2.78012,2.38991 -2.86862,6.22524 -2.86653,9.58909 6.13096,-6.84112 12.67095,-7.35729 15.93368,-7.3426 6.51108,0.0297 9.57751,-1.57231 12.68714,-5.0948 -0.0149,-0.0686 0.0149,-0.12933 0,-0.19983 -0.11983,-0.78475 -0.32996,-1.62285 -0.54943,-2.49742 -0.31551,-1.25941 -0.72861,-2.36804 -1.39848,-3.19673 -0.0149,-0.0149 -0.0371,-0.0333 -0.0501,-0.049 0,0 -0.0412,0 -0.0491,0 -0.0222,-0.0259 -0.0259,-0.0738 -0.0491,-0.0993 -0.0461,-0.0333 -0.0511,-0.0686 -0.099,-0.099 -0.0149,-0.0149 -0.0382,0.0149 -0.049,0 -0.7103,-0.46035 -1.57302,-0.80384 -2.44759,-0.94913 -0.79268,-0.13082 -1.5883,-0.23098 -2.39759,-0.29957 h -0.4995 -1.14876 z" />
    <path
       inkscape:connector-curvature="0"
       style="fill:none;stroke:#bb9400;stroke-width:1.59890175"
       id="path905"
       d="m 215.88072,246.40614 c 0,2.67988 -2.79534,4.03746 -5.15574,4.71432 -3.55093,1.02014 -6.40049,0.86416 -9.36876,0 -2.47881,-0.72197 -4.70943,-2.19727 -4.71334,-4.71336 l -0.0149,-9.08134 c -0.0112,-3.01437 2.25807,-4.91443 4.75651,-4.90464 l 8.30518,0.0149 c 3.18796,0 6.28766,-3.23701 6.27884,-6.42503 v -3.17522 h 4.12969 c 2.72833,0 4.01195,2.02755 4.68584,4.71429 0.93777,3.73143 0.98096,6.52216 0,9.43155 -0.94753,2.82507 -1.96181,5.0494 -4.68584,5.0498 h -4.21796 -9.83863 v -0.0187 l 9.83863,0.0333 z" />
    <path
       inkscape:connector-curvature="0"
       style="opacity:0.38399999;fill:#ffffff;stroke-width:0.98092127"
       id="path907"
       d="m 216.7697,223.62853 v 2.34766 c 0,3.65344 -3.42976,7.23499 -7.33817,7.23499 h -8.0917 c -2.79621,0 -3.94172,2.11575 -3.92782,4.35322 l 0.0548,8.84095 c 0.0112,1.02466 0.39237,1.78869 1.1261,2.44751 0.73374,0.65869 1.83688,1.16042 2.99702,1.49853 2.86076,0.83302 5.46961,0.9831 8.89086,0 1.11111,-0.31846 2.58904,-0.92215 3.33278,-1.56594 0.74364,-0.64398 1.28277,-1.27135 1.28277,-2.3801 v -3.56056 h -9.86022 v -1.64747 l 14.88479,0.0491 c 1.17788,0 1.75389,-0.46339 2.33889,-1.1411 0.58503,-0.6778 1.09366,-2.00783 1.55711,-3.39007 0.92757,-2.75599 0.91581,-5.34513 0,-8.9909 -0.31883,-1.27305 -0.78237,-2.30134 -1.39846,-2.99692 -0.61603,-0.69561 -1.33113,-1.09885 -2.49754,-1.09885 z m 1.59836,1.59836 h 1.7526 c 0.51025,0 1.17639,0.41136 1.29871,0.54951 0.35554,0.40148 0.76513,1.21494 1.04902,2.34754 0.87254,3.47402 0.87449,5.64175 0.0491,8.09169 -0.44308,1.32133 -0.90296,2.56434 -1.24865,2.94277 -0.31215,0.33292 -0.9809,0.49958 -1.14892,0.49958 l -4.69518,-0.0501 H 203.6367 v 4.84417 h 9.86022 v 1.96182 c 0,0.71317 -0.95474,1.15641 -1.11906,1.29868 -0.47787,0.41381 -1.32498,0.81994 -2.29759,1.0988 -3.16151,0.90872 -5.39507,0.77093 -8.042,0 -1.00162,-0.29177 -1.8697,-0.71987 -2.36094,-1.13736 -0.49127,-0.41748 -0.52149,-0.75934 -0.61191,-1.26049 l -0.0547,-8.84094 c -0.0112,-1.98383 0.63338,-2.75484 2.32948,-2.75484 h 8.09174 c 4.82936,0 8.93648,-4.26718 8.93648,-8.83339 1.1e-4,-0.25248 -1.2e-4,-0.50506 -1.2e-4,-0.75754 z" />
    <path
       inkscape:connector-curvature="0"
       style="fill:url(#linearGradient6034);stroke-width:0.98092127"
       id="path909"
       d="m 195.69893,216.72432 c 0,-2.67975 0.71846,-4.1377 4.68605,-4.83199 2.69383,-0.47214 6.14777,-0.53109 9.36911,0 2.5444,0.42002 4.68625,2.31535 4.68625,4.83199 v 8.84144 c 0,2.59299 -2.07938,4.71737 -4.68625,4.71737 l -8.49687,0.46965 c -3.17954,0 -6.46328,2.77809 -6.46328,5.84335 l -0.26842,3.70493 h -3.22133 c -2.72492,0 -4.31125,-1.96468 -4.9777,-4.7139 -0.89911,-3.69327 -0.86085,-5.89416 0,-9.43127 0.74631,-3.08606 3.1311,-4.71411 5.59127,-4.71411 h 3.51637 c 0,0 8.77418,-0.0333 0,-0.0296 v -4.68597 0 z" />
    <path
       inkscape:connector-curvature="0"
       style="fill:#ffffff;stroke-width:0.98092127"
       id="path911"
       d="m 198.04198,216.13766 c 0,-0.98095 0.78471,-1.77036 1.75643,-1.77036 0.96845,0 1.75653,0.79138 1.75653,1.77036 0,0.97542 -0.78808,1.76685 -1.75653,1.76685 -0.97191,0 -1.75643,-0.79143 -1.75643,-1.76685 z" />
    <path
       inkscape:connector-curvature="0"
       style="opacity:0.37700004;fill:url(#linearGradient6036);stroke-width:0.98092127"
       id="path913"
       d="m 204.26493,211.50152 c -1.38645,0.0333 -2.71755,0.19317 -3.89602,0.39953 -3.96762,0.69427 -4.64515,2.16526 -4.64515,4.84507 l -0.28954,4.69566 -3.25693,-2.8e-4 c -2.72493,0 -5.09768,1.60927 -5.84395,4.69506 -0.50664,2.08203 -0.73611,3.71202 -0.64945,5.4445 6.17233,-6.99583 12.7953,-7.50708 16.08367,-7.49225 6.51094,0.0297 9.57742,-1.57231 12.68701,-5.0948 v -2.2477 c 0,-2.51656 -2.15075,-4.42493 -4.69515,-4.84496 -1.81197,-0.29882 -3.71191,-0.44299 -5.49448,-0.39983 z" />
    <path
       inkscape:connector-curvature="0"
       style="fill:none;stroke:#274e70;stroke-width:1.59890175"
       id="path915"
       d="m 200.32036,212.12108 c 3.55101,-1.02054 6.40097,-0.8643 9.36877,0 2.4786,0.72205 4.68755,2.19725 4.68624,4.71403 v 9.54581 c 0,1.34013 -1.93689,4.44289 -4.68153,4.44289 h -8.72902 c -2.45063,0 -5.8826,2.66977 -5.8826,5.86689 v 3.72133 h -4.12964 c -2.72844,0 -4.01288,-2.02729 -4.6863,-4.71414 -0.93723,-3.73151 -0.98091,-6.52242 0,-9.43135 0.9477,-2.82564 1.96187,-5.0495 4.6863,-5.0495 h 4.21646 9.83865 v 0.0187 l -9.83865,-0.0333 0.0187,-4.78032 c -0.0259,-1.95842 2.36852,-3.48465 5.13249,-4.30087 z" />
    <path
       inkscape:connector-curvature="0"
       style="opacity:0.16499999;fill:#ffffff;stroke-width:0.98092127"
       id="path917"
       d="m 194.2756,239.61309 v -2.74269 c 0,-3.65356 3.33053,-6.89462 6.91167,-6.89462 h 8.51824 c 2.1138,0 3.94722,-2.19831 3.92779,-4.29848 l -0.082,-8.84106 c -0.0112,-1.02454 -0.36519,-1.78867 -1.09891,-2.44747 -0.73368,-0.65878 -1.83688,-1.16054 -2.99695,-1.49847 -2.86094,-0.83318 -5.4698,-0.98318 -8.89098,0 -1.11095,0.31846 -2.58922,0.92207 -3.33274,1.56597 -0.74373,0.64388 -1.28265,1.27127 -1.28265,2.37997 v 3.56057 h 9.86011 v 1.64833 l -14.88481,-0.0501 c -1.17711,0 -1.75388,0.46341 -2.33891,1.14123 -0.58504,0.6776 -1.09362,2.00764 -1.55711,3.38996 -0.92757,2.75597 -0.9157,5.34502 0,8.99083 0.3192,1.27304 0.78236,2.30134 1.39861,2.99692 0.616,0.69566 1.33113,1.09892 2.49741,1.09892 h 3.35102 z m -1.59838,-1.59843 h -1.75263 c -0.51008,0 -1.17712,-0.41142 -1.29863,-0.54933 -0.35555,-0.40159 -0.76523,-1.21518 -1.0491,-2.34772 -0.87254,-3.47397 -0.8744,-5.64159 -0.0498,-8.09173 0.44307,-1.32112 0.90294,-2.56422 1.24869,-2.93288 0.31216,-0.33291 0.97202,-0.49946 1.14885,-0.49946 l 16.48323,0.0501 v -4.84516 h -9.8601 v -1.96188 c 0,-0.71312 0.95466,-1.15637 1.11893,-1.29864 0.47806,-0.41385 1.32516,-0.81993 2.29771,-1.09862 3.16144,-0.90852 5.39508,-0.77081 8.04193,0 1.0017,0.29177 1.86972,0.71991 2.34753,1.14886 0.17015,0.13268 0.25952,0.29178 0.40003,0.44945 0.19502,0.23245 0.15244,0.53973 0.19723,0.79917 v 8.84106 c 0,1.21209 -1.03632,2.70014 -2.24758,2.70014 h -8.5182 c -4.50215,0 -8.51009,3.92654 -8.51009,8.49292 0,0.38013 0,1.14377 0,1.14377 z" />
    <g
       aria-label="python"
       style="font-style:normal;font-variant:normal;font-weight:normal;font-stretch:normal;font-size:47.8981781px;line-height:1.25;font-family:Flux;-inkscape-font-specification:Flux;letter-spacing:0px;word-spacing:0px;fill:#ffffff;fill-opacity:1;stroke:none;stroke-width:0.49893937"
       id="text848"
       transform="matrix(0.91555397,0,0,0.91555397,22.926537,19.327505)">
      <path
         d="m 238.62828,221.96779 c 5.69988,-0.0958 8.28638,5.2688 8.33428,11.35187 0,5.3646 -2.6823,10.39391 -8.43008,10.5855 -2.34701,0 -4.35873,-0.71847 -6.32256,-1.91593 v 12.40563 l -3.44867,-1.24535 0.0479,-27.54145 c -0.0479,0 2.6823,-3.59237 9.77123,-3.68816 z m -0.86217,19.44666 c 4.59823,-0.28738 5.173,-4.78981 5.173,-8.33428 0,-3.44867 -0.57477,-8.62167 -4.93351,-8.81326 -2.96969,-0.1916 -5.36459,1.19745 -5.84358,1.67643 v 13.65098 c 1.14956,0.71848 3.44867,1.96383 5.60409,1.82013 z"
         style="font-size:47.8981781px;fill:#ffffff;fill-opacity:1;stroke-width:0.49893937"
         id="path854"
         inkscape:connector-curvature="0" />
      <path
         d="M 256.25481,236.62464 V 221.9199 l -3.54447,1.19745 v 14.56105 c 0,3.87975 3.59237,6.13096 6.75364,6.13096 4.11925,0 6.46626,-1.14955 7.52002,-1.62853 0.0479,0.52688 0,0.38318 0,0.91006 0,1.53274 -0.0479,4.16714 -0.76637,5.50829 -1.43695,2.7302 -5.2688,3.11338 -7.9511,3.49657 l 0.57478,2.20331 c 3.54446,-0.0958 8.52587,-1.43694 10.29811,-4.78981 1.00586,-1.91593 1.14955,-5.60409 1.14955,-8.0469 v -19.01557 h -3.49656 v 17.09965 c -1.14956,0.76637 -3.25708,1.82013 -5.12511,1.86802 -3.11338,0.0479 -5.41249,-1.62853 -5.41249,-4.83771 z"
         style="font-size:47.8981781px;fill:#ffffff;fill-opacity:1;stroke-width:0.49893937"
         id="path856"
         inkscape:connector-curvature="0" />
      <path
         d="m 276.67739,224.69799 v 13.74678 c 0,3.59236 2.7781,5.69988 7.42422,5.2688 v -1.82013 c -2.44281,-0.0958 -3.92765,-0.76637 -3.92765,-3.54447 v -13.65098 h 3.92765 v -2.25121 h -3.92765 v -7.08893 l -3.49657,1.24535 v 5.84358 h -2.39491 v 2.25121 z"
         style="font-size:47.8981781px;fill:#ffffff;fill-opacity:1;stroke-width:0.49893937"
         id="path858"
         inkscape:connector-curvature="0" />
      <path
         d="m 306.34283,243.42618 v -14.60895 c 0,-3.64026 -2.49071,-6.51415 -6.22676,-6.51415 -2.826,0 -5.22091,0.91007 -7.32843,2.44281 v -14.70474 l -3.49656,1.10166 v 32.28337 h 3.49656 v -16.18959 c 1.77224,-1.24535 3.78396,-2.5386 5.98728,-2.5386 2.82599,0 4.02344,2.77809 4.02344,5.2209 v 13.50729 z"
         style="font-size:47.8981781px;fill:#ffffff;fill-opacity:1;stroke-width:0.49893937"
         id="path860"
         inkscape:connector-curvature="0" />
      <path
         d="m 310.59155,232.55329 c 0,5.79568 3.06548,11.25607 9.53173,11.30397 6.51416,-0.0479 9.67544,-5.50829 9.67544,-11.30397 -0.0479,-5.65198 -3.59237,-10.5855 -9.62754,-10.63339 -5.98727,0.0479 -9.57963,4.98141 -9.57963,10.63339 z m 3.78395,0 c 0,-3.78395 0.95797,-7.9511 5.74778,-8.23849 4.50243,0.2395 5.84358,4.45454 5.84358,8.23849 0,4.02345 -0.86216,9.00486 -5.74778,9.14855 -4.50243,-0.0479 -5.79568,-5.1251 -5.79568,-9.14855 z"
         style="font-size:47.8981781px;fill:#ffffff;fill-opacity:1;stroke-width:0.49893937"
         id="path862"
         inkscape:connector-curvature="0" />
      <path
         d="m 351.51007,243.42618 v -16.04589 c 0,-2.82599 -2.25122,-4.64612 -4.78982,-5.2209 -2.49071,-0.57478 -4.83772,-0.0958 -6.56205,0.38318 -2.20332,0.57478 -3.78396,1.58064 -5.55619,2.87389 v 18.00972 h 3.49657 v -17.57863 c 1.10166,-0.76637 2.87389,-1.58064 4.74192,-1.62854 3.06548,-0.0479 5.173,1.72433 5.173,4.93351 v 14.27366 z"
         style="font-size:47.8981781px;fill:#ffffff;fill-opacity:1;stroke-width:0.49893937"
         id="path864"
         inkscape:connector-curvature="0" />
    </g>
  </g>
</svg>
