<svg xmlns:dc="http://purl.org/dc/elements/1.1/" xmlns:cc="http://creativecommons.org/ns#" xmlns:rdf="http://www.w3.org/1999/02/22-rdf-syntax-ns#" xmlns:svg="http://www.w3.org/2000/svg" xmlns="http://www.w3.org/2000/svg" xmlns:xlink="http://www.w3.org/1999/xlink" xmlns:sodipodi="http://sodipodi.sourceforge.net/DTD/sodipodi-0.dtd" xmlns:inkscape="http://www.inkscape.org/namespaces/inkscape" viewBox="0 0 317.49999 79.375003" version="1.1" id="svg4702" inkscape:version="0.92.4 (5da689c313, 2019-01-14)" sodipodi:docname="python.svg" viewport="0 0 1600px 400px">
  <defs id="defs4696">
    <linearGradient gradientTransform="matrix(0.353878,0,0,0.353878,-20.205343,-20.508134)" gradientUnits="userSpaceOnUse" xlink:href="#lg2" id="lg5" y2="64.053001" x2="94.693001" y1="112.511" x1="94.693001"/>
    <linearGradient id="lg2">
      <stop id="stop875" offset="0" stop-color="#fff"/>
      <stop id="stop877" offset="1" stop-opacity="0.165" stop-color="#fff"/>
    </linearGradient>
    <linearGradient gradientTransform="matrix(0.353878,0,0,0.353878,-20.205343,-20.508134)" gradientUnits="userSpaceOnUse" xlink:href="#lg1" id="lg6" y2="102" x2="142.62" y1="102" x1="59.728001"/>
    <linearGradient id="lg1">
      <stop id="stop870" offset="0" stop-color="#3778ae"/>
      <stop id="stop872" offset="1" stop-color="#366c99"/>
    </linearGradient>
    <linearGradient gradientTransform="matrix(0.353878,0,0,0.353878,-9.1228126,-9.0415038)" gradientUnits="userSpaceOnUse" xlink:href="#lg2" id="lg7" y2="64.053001" x2="94.693001" y1="112.511" x1="94.693001"/>
    <linearGradient gradientTransform="matrix(0.353878,0,0,0.353878,-19.215543,-19.093134)" gradientUnits="userSpaceOnUse" xlink:href="#lg3" id="lg8" y2="169.27901" x2="116.965" y1="89.129997" x1="119.191"/>
    <linearGradient id="lg3">
      <stop id="stop880" offset="0" stop-color="#ffe253"/>
      <stop id="stop882" offset="1" stop-color="#ffca1c"/>
    </linearGradient>
    <radialGradient gradientTransform="matrix(1.6,0,0,0.551754,-3.0098176,3.7396162)" gradientUnits="userSpaceOnUse" xlink:href="#lg4" id="rg1" fy="63.965" fx="15.115" r="12.289" cy="63.965" cx="15.115"/>
    <linearGradient id="lg4">
      <stop id="stop885" offset="0" stop-color="#000"/>
      <stop id="stop887" offset="1" stop-opacity="0" stop-color="#000"/>
    </linearGradient>
    <linearGradient inkscape:collect="always" xlink:href="#lg3" id="linearGradient6030" gradientUnits="userSpaceOnUse" gradientTransform="matrix(0.22758168,0,0,0.22754358,100.08005,233.25944)" x1="119.191" y1="89.129997" x2="116.965" y2="169.27901"/>
    <linearGradient inkscape:collect="always" xlink:href="#lg2" id="linearGradient6032" gradientUnits="userSpaceOnUse" gradientTransform="matrix(0.22758168,0,0,0.22754358,106.57078,239.72263)" x1="94.693001" y1="112.511" x2="94.693001" y2="64.053001"/>
    <linearGradient inkscape:collect="always" xlink:href="#lg1" id="linearGradient6034" gradientUnits="userSpaceOnUse" gradientTransform="matrix(0.22758168,0,0,0.22754358,99.443519,232.34958)" x1="59.728001" y1="102" x2="142.62" y2="102"/>
    <linearGradient inkscape:collect="always" xlink:href="#lg2" id="linearGradient6036" gradientUnits="userSpaceOnUse" gradientTransform="matrix(0.22758168,0,0,0.22754358,99.443519,232.34958)" x1="94.693001" y1="112.511" x2="94.693001" y2="64.053001"/>
  </defs>
  <sodipodi:namedview id="base" pagecolor="#ffffff" bordercolor="#666666" borderopacity="1.0" inkscape:pageopacity="0.0" inkscape:pageshadow="2" inkscape:zoom="0.98994949" inkscape:cx="932.86405" inkscape:cy="494.75649" inkscape:document-units="mm" inkscape:current-layer="layer1" showgrid="true" units="px" inkscape:window-width="2560" inkscape:window-height="1377" inkscape:window-x="-8" inkscape:window-y="-8" inkscape:window-maximized="1" fit-margin-top="0" fit-margin-left="0" fit-margin-right="0" fit-margin-bottom="0" inkscape:pagecheckerboard="true" showguides="false">
    <inkscape:grid type="xygrid" id="grid1453"/>
  </sodipodi:namedview>
  <metadata id="metadata4699">
    <rdf:RDF>
      <cc:Work rdf:about="">
        <dc:format>image/svg+xml</dc:format>
        <dc:type rdf:resource="http://purl.org/dc/dcmitype/StillImage"/>
        <dc:title/>
      </cc:Work>
    </rdf:RDF>
  </metadata>
  <g inkscape:label="Layer 1" inkscape:groupmode="layer" id="layer1" transform="translate(-0.37797621,-217.24701)">
    <rect style="fill:#565d64;fill-opacity:0;stroke:none;stroke-width:30;stroke-miterlimit:4;stroke-dasharray:none;stroke-opacity:1" id="rect5247" width="529.16669" height="132.29167" x="0.37797621" y="164.33034"/>
    <path inkscape:connector-curvature="0" style="fill:url(#linearGradient6030);stroke-width:0.64305389" id="path899" d="m 132.53778,268.99513 c 0,1.75662 -1.52481,2.64633 -3.07238,3.09007 -2.32816,0.66896 -4.1966,0.56654 -6.14239,0 -1.625,-0.47338 -3.07236,-1.44044 -3.07236,-3.09007 v -5.79549 c 0,-1.66793 1.39043,-3.09233 3.07236,-3.09233 l 6.04419,-0.39292 c 2.04596,0 3.38315,-1.27686 3.38315,-3.37254 l 0.5566,-2.8015 h 2.30316 c 1.78874,0 2.63089,1.32891 3.0724,3.09002 0.61448,2.44616 0.64167,4.27562 0,6.18242 -0.62133,1.85218 -1.28623,3.09003 -3.0724,3.09003 h -3.07233 -6.14245 v -0.0122 c 5.30077,0.0122 6.14245,-2.13243 6.14245,3.10449 z"/>
    <path inkscape:connector-curvature="0" style="fill:#ffffff;stroke-width:0.64305389" id="path901" d="m 128.69844,269.3797 c 0,-0.63939 0.51661,-1.15824 1.15154,-1.15824 0.64312,0 1.15157,0.51885 1.15157,1.15824 0,0.64167 -0.5143,1.16042 -1.15157,1.16042 -0.63493,0 -1.15154,-0.51875 -1.15154,-1.16042 z"/>
    <path inkscape:connector-curvature="0" style="opacity:0.83699999;fill:url(#linearGradient6032);stroke-width:0.64305389" id="path903" d="m 133.30037,253.54004 v 2.71764 c -2.1937,3.856 -6.36108,3.86354 -9.85703,3.86354 l -1.29714,0.13196 c -1.8227,1.56661 -1.88072,4.08069 -1.87935,6.28571 4.01956,-4.48439 8.30729,-4.82275 10.44638,-4.81312 4.26877,0.0195 6.27917,-1.03066 8.3179,-3.33967 -0.01,-0.045 0.01,-0.0848 0,-0.13099 -0.0786,-0.51441 -0.21633,-1.06379 -0.36023,-1.63708 -0.20684,-0.82555 -0.47768,-1.55227 -0.91686,-2.09548 -0.01,-0.01 -0.0243,-0.0218 -0.0329,-0.0321 0,0 -0.027,0 -0.0322,0 -0.0145,-0.017 -0.017,-0.0484 -0.0322,-0.0651 -0.0302,-0.0218 -0.0335,-0.045 -0.0649,-0.0649 -0.01,-0.01 -0.025,0.01 -0.0321,0 -0.46568,-0.30176 -1.0313,-0.52692 -1.60467,-0.62216 -0.5197,-0.0857 -1.04133,-0.15141 -1.57191,-0.19637 h -0.32748 -0.75314 z"/>
    <path inkscape:connector-curvature="0" style="fill:none;stroke:#bb9400;stroke-width:1.04817784" id="path905" d="m 132.84559,268.99481 c 0,1.75669 -1.83267,2.64658 -3.38019,3.09027 -2.32804,0.66871 -4.19626,0.56646 -6.14231,0 -1.62515,-0.47326 -3.08758,-1.44032 -3.09014,-3.08964 l -0.01,-5.95288 c -0.007,-1.97594 1.48043,-3.22143 3.11845,-3.21502 l 5.445,0.01 c 2.09008,0 4.1223,-2.12188 4.11651,-4.21165 v -2.08137 h 2.7075 c 1.78873,0 2.63029,1.32907 3.07211,3.09024 0.61482,2.44598 0.64313,4.27532 0,6.18244 -0.62122,1.85185 -1.28619,3.30991 -3.07211,3.31017 h -2.76537 -6.45036 v -0.0122 l 6.45036,0.0218 z"/>
    <path inkscape:connector-curvature="0" style="opacity:0.38399999;fill:#ffffff;stroke-width:0.64305389" id="path907" d="m 133.42842,254.06394 v 1.53891 c 0,2.39485 -2.24861,4.74258 -4.81102,4.74258 h -5.30505 c -1.83324,0 -2.58426,1.38689 -2.57515,2.85356 l 0.0359,5.7953 c 0.007,0.67167 0.25725,1.1725 0.73829,1.60436 0.48106,0.43178 1.20429,0.76066 1.9649,0.98229 1.87556,0.54606 3.58596,0.64443 5.82898,0 0.72846,-0.20874 1.69742,-0.60446 2.18503,-1.02648 0.48754,-0.42213 0.84101,-0.83337 0.84101,-1.56017 v -2.33396 h -6.46452 v -1.07993 l 9.75871,0.0322 c 0.77224,0 1.14987,-0.30375 1.53341,-0.74799 0.38356,-0.44431 0.71702,-1.31615 1.02087,-2.22222 0.60813,-1.80657 0.60041,-3.50376 0,-5.89358 -0.20903,-0.8345 -0.51294,-1.50855 -0.91686,-1.96451 -0.40388,-0.45597 -0.87271,-0.72029 -1.63742,-0.72029 z m 1.04791,1.04774 h 1.14903 c 0.33453,0 0.77126,0.26965 0.85146,0.36021 0.2331,0.26317 0.50162,0.7964 0.68775,1.53883 0.57205,2.27724 0.57333,3.69819 0.0322,5.30415 -0.29049,0.86613 -0.592,1.68094 -0.81864,1.929 -0.20465,0.21824 -0.64309,0.32748 -0.75325,0.32748 l -3.07823,-0.0329 h -7.72842 v 3.17539 h 6.46452 v 1.28598 c 0,0.46748 -0.62594,0.75803 -0.73368,0.85129 -0.31329,0.27125 -0.86867,0.53748 -1.50633,0.72027 -2.07274,0.59567 -3.5371,0.50536 -5.27247,0 -0.65667,-0.19126 -1.2258,-0.47188 -1.54787,-0.74555 -0.32208,-0.27366 -0.34189,-0.49775 -0.40117,-0.82626 l -0.0359,-5.79529 c -0.007,-1.30041 0.41526,-1.80581 1.52725,-1.80581 h 5.30508 c 3.1662,0 5.85889,-2.79717 5.85889,-5.79035 7e-5,-0.1655 -8e-5,-0.33107 -8e-5,-0.49657 z"/>
    <path inkscape:connector-curvature="0" style="fill:url(#linearGradient6034);stroke-width:0.64305389" id="path909" d="m 119.61408,249.53819 c 0,-1.75659 0.47104,-2.71228 3.07225,-3.1674 1.76612,-0.30949 4.03058,-0.34813 6.14254,0 1.66815,0.27533 3.07238,1.51773 3.07238,3.1674 v 5.79562 c 0,1.69973 -1.36327,3.09227 -3.07238,3.09227 l -5.57068,0.30785 c -2.08456,0 -4.23743,1.82106 -4.23743,3.83036 l -0.17598,2.4286 h -2.11196 c -1.7865,0 -2.82652,-1.28785 -3.26346,-3.08999 -0.58947,-2.42095 -0.56438,-3.86366 0,-6.18226 0.4893,-2.02293 2.0528,-3.09012 3.66573,-3.09012 h 2.30539 c 0,0 5.75249,-0.0218 0,-0.0194 v -3.07168 0 z"/>
    <path inkscape:connector-curvature="0" style="fill:#ffffff;stroke-width:0.64305389" id="path911" d="m 121.15022,249.15363 c 0,-0.64301 0.51447,-1.16048 1.15155,-1.16048 0.63493,0 1.15161,0.51876 1.15161,1.16048 0,0.6394 -0.51668,1.15819 -1.15161,1.15819 -0.6372,0 -1.15155,-0.51879 -1.15155,-1.15819 z"/>
    <path inkscape:connector-curvature="0" style="opacity:0.37700004;fill:url(#linearGradient6036);stroke-width:0.64305389" id="path913" d="m 125.23009,246.11461 c -0.90898,0.0218 -1.78167,0.12662 -2.55429,0.26189 -2.60124,0.4551 -3.04544,1.41935 -3.04544,3.17598 l -0.18982,3.07804 -2.1353,-1.9e-4 c -1.78651,0 -3.34212,1.05489 -3.83139,3.07765 -0.33216,1.36478 -0.4826,2.43324 -0.42579,3.5689 4.04668,-4.58581 8.3888,-4.92095 10.54471,-4.91122 4.26868,0.0195 6.27911,-1.03065 8.31781,-3.33967 v -1.47338 c 0,-1.64963 -1.41007,-2.90057 -3.07822,-3.17591 -1.18795,-0.19588 -2.43358,-0.29038 -3.60226,-0.26209 z"/>
    <path inkscape:connector-curvature="0" style="fill:none;stroke:#274e70;stroke-width:1.04817784" id="path915" d="m 122.64397,246.52074 c 2.32809,-0.66897 4.19657,-0.56656 6.14231,0 1.62501,0.47331 3.07323,1.44031 3.07237,3.09007 v 6.25734 c 0,0.87847 -1.26985,2.91235 -3.06928,2.91235 h -5.72289 c -1.60667,0 -3.85672,1.75004 -3.85672,3.84578 v 2.43936 h -2.70746 c -1.78881,0 -2.63091,-1.3289 -3.07241,-3.09015 -0.61447,-2.44603 -0.6431,-4.27549 0,-6.18231 0.62133,-1.85222 1.28623,-3.30998 3.07241,-3.30998 h 2.76438 6.45037 v 0.0122 l -6.45037,-0.0218 0.0123,-3.13353 c -0.017,-1.28375 1.55284,-2.28421 3.36495,-2.81925 z"/>
    <path inkscape:connector-curvature="0" style="opacity:0.16499999;fill:#ffffff;stroke-width:0.64305389" id="path917" d="m 118.68093,264.54192 v -1.79785 c 0,-2.39493 2.18354,-4.51946 4.5314,-4.51946 h 5.58469 c 1.38584,0 2.58786,-1.44101 2.57512,-2.81768 l -0.0538,-5.79538 c -0.008,-0.67159 -0.23942,-1.17248 -0.72046,-1.60433 -0.48101,-0.43183 -1.2043,-0.76074 -1.96485,-0.98225 -1.87568,-0.54616 -3.58609,-0.64449 -5.82907,0 -0.72836,0.20875 -1.69754,0.60442 -2.185,1.0265 -0.4876,0.42207 -0.84093,0.83333 -0.84093,1.56008 v 2.33398 h 6.46445 v 1.08049 l -9.75872,-0.0329 c -0.77173,0 -1.14987,0.30377 -1.53343,0.74808 -0.38356,0.44417 -0.71699,1.31602 -1.02086,2.22214 -0.60813,1.80655 -0.60035,3.5037 0,5.89355 0.20927,0.83449 0.51293,1.50854 0.91695,1.9645 0.40386,0.45601 0.87271,0.72035 1.63734,0.72035 h 2.19698 z m -1.04793,-1.04778 h -1.14905 c -0.33442,0 -0.77174,-0.26968 -0.8514,-0.36009 -0.23311,-0.26324 -0.5017,-0.79655 -0.68781,-1.53894 -0.57205,-2.27721 -0.57327,-3.6981 -0.0326,-5.30418 0.29048,-0.866 0.59198,-1.68087 0.81866,-1.92253 0.20466,-0.21822 0.63727,-0.32739 0.7532,-0.32739 l 10.80667,0.0329 v -3.17603 h -6.46444 v -1.28603 c 0,-0.46746 0.62589,-0.75801 0.73359,-0.85127 0.31342,-0.27127 0.8688,-0.53746 1.50642,-0.72014 2.07269,-0.59554 3.5371,-0.50527 5.27242,0 0.65673,0.19126 1.22582,0.4719 1.53908,0.75308 0.11155,0.087 0.17015,0.19126 0.26227,0.29462 0.12785,0.15237 0.0999,0.35379 0.1293,0.52385 v 5.79538 c 0,0.79453 -0.67943,1.76995 -1.47355,1.76995 h -5.58467 c -2.95168,0 -5.57935,2.57389 -5.57935,5.56717 0,0.24917 0,0.74974 0,0.74974 z"/>
    <g aria-label="python" style="font-style:normal;font-variant:normal;font-weight:normal;font-stretch:normal;font-size:47.8981781px;line-height:1.25;font-family:Flux;-inkscape-font-specification:Flux;letter-spacing:0px;word-spacing:0px;fill:#ffffff;fill-opacity:1;stroke:none;stroke-width:0.49893937" id="text848" transform="matrix(0.60025187,0,0,0.60015138,6.3417323,120.14334)">
      <path d="m 238.62828,221.96779 c 5.69988,-0.0958 8.28638,5.2688 8.33428,11.35187 0,5.3646 -2.6823,10.39391 -8.43008,10.5855 -2.34701,0 -4.35873,-0.71847 -6.32256,-1.91593 v 12.40563 l -3.44867,-1.24535 0.0479,-27.54145 c -0.0479,0 2.6823,-3.59237 9.77123,-3.68816 z m -0.86217,19.44666 c 4.59823,-0.28738 5.173,-4.78981 5.173,-8.33428 0,-3.44867 -0.57477,-8.62167 -4.93351,-8.81326 -2.96969,-0.1916 -5.36459,1.19745 -5.84358,1.67643 v 13.65098 c 1.14956,0.71848 3.44867,1.96383 5.60409,1.82013 z" style="font-size:47.8981781px;fill:#ffffff;fill-opacity:1;stroke-width:0.49893937" id="path854" inkscape:connector-curvature="0"/>
      <path d="M 256.25481,236.62464 V 221.9199 l -3.54447,1.19745 v 14.56105 c 0,3.87975 3.59237,6.13096 6.75364,6.13096 4.11925,0 6.46626,-1.14955 7.52002,-1.62853 0.0479,0.52688 0,0.38318 0,0.91006 0,1.53274 -0.0479,4.16714 -0.76637,5.50829 -1.43695,2.7302 -5.2688,3.11338 -7.9511,3.49657 l 0.57478,2.20331 c 3.54446,-0.0958 8.52587,-1.43694 10.29811,-4.78981 1.00586,-1.91593 1.14955,-5.60409 1.14955,-8.0469 v -19.01557 h -3.49656 v 17.09965 c -1.14956,0.76637 -3.25708,1.82013 -5.12511,1.86802 -3.11338,0.0479 -5.41249,-1.62853 -5.41249,-4.83771 z" style="font-size:47.8981781px;fill:#ffffff;fill-opacity:1;stroke-width:0.49893937" id="path856" inkscape:connector-curvature="0"/>
      <path d="m 276.67739,224.69799 v 13.74678 c 0,3.59236 2.7781,5.69988 7.42422,5.2688 v -1.82013 c -2.44281,-0.0958 -3.92765,-0.76637 -3.92765,-3.54447 v -13.65098 h 3.92765 v -2.25121 h -3.92765 v -7.08893 l -3.49657,1.24535 v 5.84358 h -2.39491 v 2.25121 z" style="font-size:47.8981781px;fill:#ffffff;fill-opacity:1;stroke-width:0.49893937" id="path858" inkscape:connector-curvature="0"/>
      <path d="m 306.34283,243.42618 v -14.60895 c 0,-3.64026 -2.49071,-6.51415 -6.22676,-6.51415 -2.826,0 -5.22091,0.91007 -7.32843,2.44281 v -14.70474 l -3.49656,1.10166 v 32.28337 h 3.49656 v -16.18959 c 1.77224,-1.24535 3.78396,-2.5386 5.98728,-2.5386 2.82599,0 4.02344,2.77809 4.02344,5.2209 v 13.50729 z" style="font-size:47.8981781px;fill:#ffffff;fill-opacity:1;stroke-width:0.49893937" id="path860" inkscape:connector-curvature="0"/>
      <path d="m 310.59155,232.55329 c 0,5.79568 3.06548,11.25607 9.53173,11.30397 6.51416,-0.0479 9.67544,-5.50829 9.67544,-11.30397 -0.0479,-5.65198 -3.59237,-10.5855 -9.62754,-10.63339 -5.98727,0.0479 -9.57963,4.98141 -9.57963,10.63339 z m 3.78395,0 c 0,-3.78395 0.95797,-7.9511 5.74778,-8.23849 4.50243,0.2395 5.84358,4.45454 5.84358,8.23849 0,4.02345 -0.86216,9.00486 -5.74778,9.14855 -4.50243,-0.0479 -5.79568,-5.1251 -5.79568,-9.14855 z" style="font-size:47.8981781px;fill:#ffffff;fill-opacity:1;stroke-width:0.49893937" id="path862" inkscape:connector-curvature="0"/>
      <path d="m 351.51007,243.42618 v -16.04589 c 0,-2.82599 -2.25122,-4.64612 -4.78982,-5.2209 -2.49071,-0.57478 -4.83772,-0.0958 -6.56205,0.38318 -2.20332,0.57478 -3.78396,1.58064 -5.55619,2.87389 v 18.00972 h 3.49657 v -17.57863 c 1.10166,-0.76637 2.87389,-1.58064 4.74192,-1.62854 3.06548,-0.0479 5.173,1.72433 5.173,4.93351 v 14.27366 z" style="font-size:47.8981781px;fill:#ffffff;fill-opacity:1;stroke-width:0.49893937" id="path864" inkscape:connector-curvature="0"/>
    </g>
  </g>
</svg>